#tb 0: 1/25
#media_type 0: video
#codec_id 0: rawvideo
#dimensions 0: 352x288
#sar 0: 0/1
0,          0,          0,        1,   152064, 0x96ebb3a2
0,          1,          1,        1,   152064, 0x5184d912
0,          2,          2,        1,   152064, 0xb7b5ba68
0,          3,          3,        1,   152064, 0x6dd81860
0,          4,          4,        1,   152064, 0xcffe2ff0
0,          5,          5,        1,   152064, 0x27740140
0,          6,          6,        1,   152064, 0xffa5609f
0,          7,          7,        1,   152064, 0x05e9a6c6
0,          8,          8,        1,   152064, 0xa5ea5692
0,          9,          9,        1,   152064, 0x78a9dd79
0,         10,         10,        1,   152064, 0x2bf218b3
0,         11,         11,        1,   152064, 0x4591cadc
0,         12,         12,        1,   152064, 0x075428a8
0,         13,         13,        1,   152064, 0xbbda56d8
0,         14,         14,        1,   152064, 0xc8fa1a28
0,         15,         15,        1,   152064, 0x7c627c21
0,         16,         16,        1,   152064, 0x9043ba42
0,         17,         17,        1,   152064, 0xb426940d
0,         18,         18,        1,   152064, 0x51d4058b
0,         19,         19,        1,   152064, 0xb7513536
0,         20,         20,        1,   152064, 0xe906ffab
0,         21,         21,        1,   152064, 0x3d075443
0,         22,         22,        1,   152064, 0x85c37afd
0,         23,         23,        1,   152064, 0x2ac74040
0,         24,         24,        1,   152064, 0x3a08aa90
